<svg id="Apple" xmlns="http://www.w3.org/2000/svg" width="50" height="50" viewBox="0 0 50 50">
  <circle id="Oval" cx="25" cy="25" r="25" fill="#121924"/>
  <g id="_1._Icons_Fill_2_User" data-name="1. Icons / Fill /  2 User" transform="translate(13 13)">
    <path id="Shape" d="M5.1,19.007a2.458,2.458,0,0,1-1.653-.766,9.9,9.9,0,0,1-1.377-1.648A11.407,11.407,0,0,1,.611,13.7,10.653,10.653,0,0,1,0,10.255,6.317,6.317,0,0,1,.826,6.963a4.869,4.869,0,0,1,1.73-1.751A4.656,4.656,0,0,1,4.9,4.55a5.51,5.51,0,0,1,1.81.421,5.832,5.832,0,0,0,1.436.422,8.565,8.565,0,0,0,1.593-.5A5.789,5.789,0,0,1,11.642,4.5c.087,0,.173,0,.256.01a4.616,4.616,0,0,1,3.6,1.9,4.019,4.019,0,0,0-2.123,3.637,4.022,4.022,0,0,0,1.317,3.023,4.327,4.327,0,0,0,1.316.863c-.1.3-.215.59-.337.882a10.336,10.336,0,0,1-1.021,1.837,9.444,9.444,0,0,1-1.316,1.592,2.57,2.57,0,0,1-1.692.743,4.25,4.25,0,0,1-1.562-.373A4.5,4.5,0,0,0,8.4,18.241a4.645,4.645,0,0,0-1.73.371,4.656,4.656,0,0,1-1.495.393ZM8.25,4.5c-.075,0-.15,0-.225-.009A3.024,3.024,0,0,1,8,4.132a4.17,4.17,0,0,1,1.1-2.688A4.278,4.278,0,0,1,10.449.435,4.029,4.029,0,0,1,11.985,0C12,.131,12,.259,12,.381a4.072,4.072,0,0,1-1.04,2.66A3.643,3.643,0,0,1,8.25,4.5Z" transform="translate(4 2)" fill="#fff"/>
  </g>
</svg>
