<svg id="Facebook" xmlns="http://www.w3.org/2000/svg" width="50" height="50" viewBox="0 0 50 50">
  <circle id="Oval" cx="25" cy="25" r="25" fill="#0057c2"/>
  <g id="_1._Icons_Fill_2_User" data-name="1. Icons / Fill /  2 User" transform="translate(13 13)">
    <path id="Path" d="M8.081,4.951c.027-.031.155-.132.657-.132h1.644a.971.971,0,0,0,.97-.97V.974A.972.972,0,0,0,10.383,0L7.941,0A5.027,5.027,0,0,0,4.234,1.438a5.278,5.278,0,0,0-1.4,3.781V6.77H.97A.971.971,0,0,0,0,7.74v3.1a.971.971,0,0,0,.97.97H2.839V19.03a.971.971,0,0,0,.97.97h3.2a.971.971,0,0,0,.97-.97V11.806h2.284a.971.971,0,0,0,.97-.97V7.74a.973.973,0,0,0-.5-.849.986.986,0,0,0-.48-.122H7.982V5.545C7.982,5.146,8.036,5,8.081,4.951Z" transform="translate(6.02 2)" fill="#fff"/>
  </g>
</svg>
