<svg xmlns="http://www.w3.org/2000/svg" xmlns:xlink="http://www.w3.org/1999/xlink" width="92" height="92" viewBox="0 0 92 92">
  <defs>
    <filter id="Oval" x="0" y="0" width="92" height="92" filterUnits="userSpaceOnUse">
      <feOffset dy="2" input="SourceAlpha"/>
      <feGaussianBlur stdDeviation="7" result="blur"/>
      <feFlood flood-opacity="0.075"/>
      <feComposite operator="in" in2="blur"/>
      <feComposite in="SourceGraphic"/>
    </filter>
  </defs>
  <g id="Google" transform="translate(21 19)">
    <g transform="matrix(1, 0, 0, 1, -21, -19)" filter="url(#Oval)">
      <circle id="Oval-2" data-name="Oval" cx="25" cy="25" r="25" transform="translate(21 19)" fill="#fff"/>
    </g>
    <g id="_1._Icons_Fill_2_User" data-name="1. Icons / Fill /  2 User" transform="translate(13 13)">
      <g id="_014-google" data-name="014-google" transform="translate(2 2)">
        <path id="Path" d="M15.012,6.07A9.985,9.985,0,0,1,8.578,8.465,10,10,0,0,1,0,3.527L.649.534,3.527,0A5.311,5.311,0,0,0,8.578,3.738,5.2,5.2,0,0,0,11.672,2.73l2.766.422Z" transform="translate(1.422 11.535)" fill="#59c36a"/>
        <path id="Path-2" data-name="Path" d="M6.434,3.34,5.859.422,3.094,0A5.2,5.2,0,0,1,0,1.008V5.734A9.985,9.985,0,0,0,6.434,3.34Z" transform="translate(10 14.266)" fill="#00a66c"/>
        <path id="Connected_Home_1_" d="M4.727,5.063A5.461,5.461,0,0,0,4.949,6.6L1.422,10.125A9.9,9.9,0,0,1,0,5.063,9.9,9.9,0,0,1,1.422,0L4.253.487l.7,3.04A5.46,5.46,0,0,0,4.727,5.063Z" transform="translate(0 4.938)" fill="#ffda2d"/>
        <path id="Path-3" data-name="Path" d="M10.586,2.344A9.984,9.984,0,0,1,7.02,9.949L3.68,6.609A5.185,5.185,0,0,0,5.309,4.688H.586A.58.58,0,0,1,0,4.1V.586A.58.58,0,0,1,.586,0h9.25a.579.579,0,0,1,.574.48A9.936,9.936,0,0,1,10.586,2.344Z" transform="translate(9.414 7.656)" fill="#4086f4"/>
        <path id="Path-4" data-name="Path" d="M4.723,4.688A5.186,5.186,0,0,1,3.094,6.609l3.34,3.34A9.984,9.984,0,0,0,10,2.344,9.933,9.933,0,0,0,9.824.48.579.579,0,0,0,9.25,0H0V4.688Z" transform="translate(10 7.656)" fill="#4175df"/>
        <path id="Path-5" data-name="Path" d="M15.176,2.793a.591.591,0,0,1-.164.434L12.5,5.723a.574.574,0,0,1-.762.059A5.242,5.242,0,0,0,8.578,4.727,5.31,5.31,0,0,0,3.527,8.465L0,4.938A10,10,0,0,1,8.578,0a9.97,9.97,0,0,1,6.387,2.359A.616.616,0,0,1,15.176,2.793Z" transform="translate(1.422)" fill="#ff641a"/>
        <path id="Path-6" data-name="Path" d="M3.164,5.781a.574.574,0,0,0,.762-.059l2.508-2.5A.591.591,0,0,0,6.6,2.793a.616.616,0,0,0-.211-.434A9.97,9.97,0,0,0,0,0V4.727A5.241,5.241,0,0,1,3.164,5.781Z" transform="translate(10)" fill="#f03800"/>
      </g>
    </g>
  </g>
</svg>
